<svg width="42" height="43" viewBox="0 0 42 43" fill="none" xmlns="http://www.w3.org/2000/svg">
<rect x="0.5" y="0.995361" width="41" height="41" rx="20.5" stroke="#0355A7"/>
<path d="M18.1206 27.2407L23.8658 21.4954L18.1206 15.7502C18.09 15.7197 18.0634 15.6868 18.0405 15.6521C17.9873 15.5715 17.9547 15.4813 17.9427 15.389C17.9392 15.3622 17.9375 15.3352 17.9375 15.3082C17.9375 15.1674 17.9848 15.0266 18.0794 14.9117C18.0922 14.896 18.106 14.8809 18.1206 14.8663C18.132 14.8548 18.1438 14.8439 18.1559 14.8336C18.4014 14.6227 18.7718 14.6337 19.0044 14.8663L25.1916 21.0534C25.3088 21.1707 25.3747 21.3297 25.3747 21.4954C25.3747 21.6612 25.3088 21.8201 25.1916 21.9374L19.0044 28.1245C18.9739 28.155 18.9411 28.1818 18.9064 28.2046C18.6638 28.3648 18.3341 28.3381 18.1206 28.1245C18.09 28.094 18.0634 28.0611 18.0405 28.0265C17.8803 27.7839 17.907 27.4542 18.1206 27.2407Z" fill="#0355A7"/>
</svg>
