<svg width="42" height="43" viewBox="0 0 42 43" fill="none" xmlns="http://www.w3.org/2000/svg">
<rect x="42" y="0.495361" width="42" height="42" rx="21" transform="rotate(90 42 0.495361)" fill="#0A287E" fill-opacity="0.8"/>
<path d="M15.2545 18.6162L20.9998 24.3614L26.7451 18.6162C26.7756 18.5857 26.8085 18.559 26.8431 18.5361C26.9237 18.4829 27.0139 18.4503 27.1063 18.4383C27.1331 18.4348 27.16 18.4331 27.187 18.4331C27.3278 18.4331 27.4686 18.4804 27.5836 18.575C27.5992 18.5878 27.6144 18.6016 27.629 18.6162C27.6404 18.6276 27.6513 18.6394 27.6617 18.6515C27.8725 18.897 27.8616 19.2674 27.629 19.5001L21.4418 25.6872C21.3245 25.8044 21.1655 25.8703 20.9998 25.8703C20.834 25.8703 20.6751 25.8044 20.5579 25.6872L14.3707 19.5001C14.3402 19.4695 14.3135 19.4367 14.2906 19.402C14.1305 19.1594 14.1571 18.8297 14.3707 18.6162C14.4012 18.5857 14.4341 18.559 14.4687 18.5361C14.7114 18.3759 15.041 18.4026 15.2545 18.6162Z" fill="white"/>
</svg>
