<svg width="20" height="21" viewBox="0 0 20 21" fill="none" xmlns="http://www.w3.org/2000/svg">
<g id="Frame">
<path id="Vector" d="M4.25455 7.61605L9.9998 13.3613L15.7451 7.61605C15.7756 7.58553 15.8085 7.55884 15.8431 7.53595C15.9237 7.48275 16.0139 7.45016 16.1063 7.4382C16.1331 7.43472 16.16 7.43299 16.187 7.43299C16.3278 7.43299 16.4686 7.48027 16.5836 7.57485C16.5992 7.58771 16.6144 7.60144 16.629 7.61605C16.6404 7.62748 16.6513 7.63925 16.6617 7.65134C16.8725 7.89689 16.8616 8.26729 16.629 8.49993L10.4418 14.6871C10.3245 14.8043 10.1655 14.8702 9.9998 14.8702C9.83405 14.8702 9.67513 14.8043 9.55788 14.6871L3.37071 8.49993C3.34021 8.46941 3.31346 8.43654 3.29063 8.40188C3.13046 8.15929 3.15713 7.82961 3.37071 7.61605C3.40121 7.58553 3.43413 7.55884 3.46871 7.53595C3.71138 7.37578 4.04105 7.40247 4.25455 7.61605Z" fill="#0355A7"/>
</g>
</svg>
