<svg width="32" height="32" viewBox="0 0 32 32" fill="none" xmlns="http://www.w3.org/2000/svg">
<g id="Frame">
<path id="Vector" d="M11.3359 11.3334C11.7264 10.9429 12.3596 10.9429 12.7501 11.3334L16.0026 14.5858L19.255 11.3334C19.6455 10.9429 20.2787 10.9429 20.6691 11.3334C21.0597 11.724 21.0597 12.3571 20.6691 12.7476L17.4167 16.0001L20.6693 19.2525C21.0598 19.643 21.0598 20.2762 20.6693 20.6668C20.2787 21.0573 19.6455 21.0573 19.255 20.6668L16.0026 17.4144L12.7501 20.6668C12.7013 20.7156 12.6487 20.7584 12.5932 20.7949C12.2051 21.0512 11.6776 21.0085 11.3359 20.6668C10.9453 20.2762 10.9453 19.643 11.3359 19.2525L14.5883 16.0001L11.3359 12.7476C10.9454 12.3571 10.9454 11.724 11.3359 11.3334Z" fill="#0355A7"/>
<path id="Vector_2" fill-rule="evenodd" clip-rule="evenodd" d="M29.3357 16.0001C29.3357 23.3638 23.3661 29.3334 16.0023 29.3334C8.63849 29.3334 2.66895 23.3638 2.66895 16.0001C2.66895 8.63628 8.63849 2.66675 16.0023 2.66675C23.3661 2.66675 29.3357 8.63628 29.3357 16.0001ZM27.3357 16.0001C27.3357 22.2593 22.2615 27.3334 16.0023 27.3334C9.74305 27.3334 4.66895 22.2593 4.66895 16.0001C4.66895 9.74085 9.74305 4.66675 16.0023 4.66675C22.2615 4.66675 27.3357 9.74085 27.3357 16.0001Z" fill="#0355A7"/>
</g>
</svg>
