<svg width="20" height="20" viewBox="0 0 20 20" fill="none" xmlns="http://www.w3.org/2000/svg">
<g id="Frame">
<path id="Vector" fill-rule="evenodd" clip-rule="evenodd" d="M0 2.5C0 2.15483 0.279822 1.875 0.625 1.875H2.84C3.09557 1.875 3.32538 2.03059 3.4203 2.26788L3.84648 3.33333H17.9358C18.5253 3.33333 18.9285 3.92878 18.7095 4.47616L16.2524 10.619C15.9993 11.2517 15.3864 11.6667 14.7049 11.6667H6.40118L5.27243 13.5417H16.0417C16.3868 13.5417 16.6667 13.8215 16.6667 14.1667C16.6667 14.5118 16.3868 14.7917 16.0417 14.7917H4.16667C3.94133 14.7917 3.73344 14.6703 3.62257 14.4742C3.51169 14.278 3.51499 14.0373 3.63121 13.8443L5.47758 10.7773L2.5 3.33333L2.41686 3.125H0.625C0.279822 3.125 0 2.84518 0 2.5ZM6.67982 10.4167H14.7049C14.8753 10.4167 15.0285 10.3129 15.0918 10.1548L17.3204 4.58333H4.34648L6.67982 10.4167Z" fill="white"/>
<path id="Vector_2" d="M5.8335 17.2917C5.8335 17.9821 5.27385 18.5417 4.5835 18.5417C3.89314 18.5417 3.3335 17.9821 3.3335 17.2917C3.3335 16.6014 3.89314 16.0417 4.5835 16.0417C5.27385 16.0417 5.8335 16.6014 5.8335 17.2917Z" fill="white"/>
<path id="Vector_3" d="M15.4165 18.5417C16.1068 18.5417 16.6665 17.9821 16.6665 17.2917C16.6665 16.6014 16.1068 16.0417 15.4165 16.0417C14.7262 16.0417 14.1665 16.6014 14.1665 17.2917C14.1665 17.9821 14.7262 18.5417 15.4165 18.5417Z" fill="white"/>
</g>
</svg>
