<svg width="20" height="20" viewBox="0 0 20 20" fill="none" xmlns="http://www.w3.org/2000/svg">
<g id="Frame">
<path id="Vector" d="M15.0101 4.10725C15.2542 3.86318 15.6498 3.86318 15.8939 4.10725C16.138 4.35133 16.138 4.74706 15.8939 4.99113L10.8853 9.99979L15.8939 15.0085C16.138 15.2525 16.138 15.6483 15.8939 15.8924C15.6498 16.1365 15.2542 16.1365 15.0101 15.8924L10.0013 10.8837L4.99273 15.8923C4.96222 15.9229 4.92934 15.9495 4.89468 15.9725C4.65209 16.1326 4.32241 16.1059 4.10884 15.8923C3.86476 15.6483 3.86476 15.2525 4.10884 15.0085L9.1175 9.99979L4.10884 4.99118C3.86477 4.7471 3.86477 4.35137 4.10884 4.10729C4.35292 3.86322 4.74865 3.86322 4.99273 4.10729L10.0013 9.11596L15.0101 4.10725Z" fill="white"/>
</g>
</svg>
