<svg width="20" height="20" viewBox="0 0 20 20" fill="none" xmlns="http://www.w3.org/2000/svg">
<g id="Frame">
<path id="Vector" fill-rule="evenodd" clip-rule="evenodd" d="M7.5 4.375C8.54892 4.375 9.43333 5.07976 9.70542 6.0416H16.875C17.2202 6.0416 17.5 6.32142 17.5 6.6666C17.5 7.01178 17.2202 7.2916 16.875 7.2916H9.70542C9.43342 8.25351 8.549 8.95833 7.5 8.95833C6.45099 8.95833 5.5666 8.25351 5.29457 7.2916H3.125C2.77983 7.2916 2.5 7.01178 2.5 6.6666C2.5 6.32142 2.77983 6.0416 3.125 6.0416H5.29462C5.56669 5.07976 6.45104 4.375 7.5 4.375ZM8.54167 6.66667C8.54167 6.09137 8.07529 5.625 7.5 5.625C6.9247 5.625 6.45833 6.09137 6.45833 6.66667C6.45833 7.24197 6.9247 7.70833 7.5 7.70833C8.07529 7.70833 8.54167 7.24197 8.54167 6.66667Z" fill="#0A287E"/>
<path id="Vector_2" fill-rule="evenodd" clip-rule="evenodd" d="M12.5 11.0416C13.5489 11.0416 14.4333 11.7464 14.7054 12.7082H16.875C17.2201 12.7082 17.5 12.988 17.5 13.3332C17.5 13.6784 17.2201 13.9582 16.875 13.9582H14.7054C14.4334 14.9201 13.549 15.625 12.5 15.625C11.451 15.625 10.5666 14.9201 10.2946 13.9582H3.125C2.77983 13.9582 2.5 13.6784 2.5 13.3332C2.5 12.988 2.77983 12.7082 3.125 12.7082H10.2946C10.5667 11.7464 11.4511 11.0416 12.5 11.0416ZM13.5416 13.3333C13.5416 12.758 13.0753 12.2916 12.5 12.2916C11.9247 12.2916 11.4583 12.758 11.4583 13.3333C11.4583 13.9086 11.9247 14.375 12.5 14.375C13.0753 14.375 13.5416 13.9086 13.5416 13.3333Z" fill="#0A287E"/>
</g>
</svg>
