<svg width="24" height="25" viewBox="0 0 24 25" fill="none" xmlns="http://www.w3.org/2000/svg">
<g id="Frame">
<path id="Vector" fill-rule="evenodd" clip-rule="evenodd" d="M20.4418 11.4954C19.9469 7.27219 16.3561 3.99536 12 3.99536C7.64389 3.99536 4.05313 7.27219 3.5582 11.4954H6.5C7.60457 11.4954 8.5 12.3908 8.5 13.4954V17.4954C8.5 18.6 7.60457 19.4954 6.5 19.4954H4C2.89543 19.4954 2 18.6 2 17.4954V12.4954C2 6.97251 6.47715 2.49536 12 2.49536C17.5228 2.49536 22 6.97251 22 12.4954V19.4954C22 21.7045 20.2091 23.4954 18 23.4954H12.75C12.3358 23.4954 12 23.1596 12 22.7454C12 22.3312 12.3358 21.9954 12.75 21.9954H18C19.3807 21.9954 20.5 20.8761 20.5 19.4954H17.5C16.3954 19.4954 15.5 18.6 15.5 17.4954V13.4954C15.5 12.3908 16.3954 11.4954 17.5 11.4954H20.4418ZM17.5 12.9954H20.5V17.9954H17.5C17.2239 17.9954 17 17.7715 17 17.4954V13.4954C17 13.2193 17.2239 12.9954 17.5 12.9954ZM3.5 17.4954C3.5 17.7715 3.72386 17.9954 4 17.9954H6.5C6.77614 17.9954 7 17.7715 7 17.4954V13.4954C7 13.2193 6.77614 12.9954 6.5 12.9954H3.5V17.4954Z" fill="#0355A7"/>
</g>
</svg>
