<svg width="25" height="25" viewBox="0 0 25 25" fill="none" xmlns="http://www.w3.org/2000/svg">
<g id="Frame">
<path id="Vector" fill-rule="evenodd" clip-rule="evenodd" d="M11.5007 14.5V20.5C11.5007 21.0522 11.053 21.5 10.5007 21.5H5.50074C4.94845 21.5 4.50074 21.0522 4.50074 20.5V11.5H2.68557C2.21748 11.5 2.00603 10.9143 2.36615 10.6153L11.2231 3.26087C11.9638 2.64579 13.0377 2.64579 13.7784 3.26087L22.6353 10.6153C22.9954 10.9143 22.784 11.5 22.3159 11.5H20.5007V20.5C20.5007 21.0522 20.053 21.5 19.5007 21.5H14.5007C13.9485 21.5 13.5007 21.0522 13.5007 20.5V14.5H11.5007ZM6.00074 11.5L6.00073 11.4961V9.54698L12.1813 4.41489C12.3665 4.26112 12.635 4.26112 12.8202 4.41489L19.0007 9.54698V20H15.0007V14.5V14.4962V14C15.0007 13.4477 14.553 13 14.0007 13H11.0007C10.4485 13 10.0007 13.4477 10.0007 14L10.0007 20H6.00074V11.5Z" fill="#0355A7"/>
</g>
</svg>
