<svg width="20" height="20" viewBox="0 0 20 20" fill="none" xmlns="http://www.w3.org/2000/svg">
<g id="Frame" clip-path="url(#clip0_55_493)">
<path id="Vector" fill-rule="evenodd" clip-rule="evenodd" d="M12.5 6.66675C12.5 8.04746 11.3807 9.16675 9.99999 9.16675C8.61932 9.16675 7.5 8.04746 7.5 6.66675C7.5 5.28604 8.61932 4.16675 9.99999 4.16675C11.3807 4.16675 12.5 5.28604 12.5 6.66675ZM11.25 6.66675C11.25 7.35711 10.6903 7.91675 9.99999 7.91675C9.30966 7.91675 8.74999 7.35711 8.74999 6.66675C8.74999 5.97639 9.30966 5.41675 9.99999 5.41675C10.6903 5.41675 11.25 5.97639 11.25 6.66675Z" fill="#0355A7"/>
<path id="Vector_2" fill-rule="evenodd" clip-rule="evenodd" d="M11.034 14.8748C12.7098 13.2315 15.8332 9.75442 15.8332 6.66659C15.8332 3.42492 13.2215 0.833252 9.99984 0.833252C6.77818 0.833252 4.1665 3.42492 4.1665 6.66659C4.1665 9.75442 7.28987 13.2315 8.96567 14.8748C9.54784 15.4457 10.4518 15.4457 11.034 14.8748ZM13.0274 10.6109C13.9753 9.21284 14.5832 7.82954 14.5832 6.66659C14.5832 4.11807 12.5339 2.08325 9.99984 2.08325C7.46574 2.08325 5.4165 4.11807 5.4165 6.66659C5.4165 7.82954 6.0244 9.21284 6.97229 10.6109C7.89736 11.9753 9.03275 13.1898 9.84084 13.9823C9.89567 14.036 9.95192 14.0529 9.99984 14.0529C10.0478 14.0529 10.104 14.036 10.1588 13.9823C10.9669 13.1898 12.1023 11.9753 13.0274 10.6109Z" fill="#0355A7"/>
<path id="Vector_3" d="M4.71482 12.578C4.42423 12.2874 3.93708 12.3516 3.73161 12.7074L1.08486 17.2918C0.603737 18.1251 1.20514 19.1668 2.16739 19.1668H17.8347C18.797 19.1668 19.3984 18.1251 18.9173 17.2918L16.2697 12.7058C16.0642 12.35 15.577 12.2858 15.2864 12.5764C15.0864 12.7764 15.0457 13.0859 15.1871 13.3308L17.8347 17.9168H2.16739L4.81414 13.3324C4.95558 13.0875 4.91484 12.778 4.71482 12.578Z" fill="#0355A7"/>
</g>
<defs>
<clipPath id="clip0_55_493">
<rect width="20" height="20" fill="white"/>
</clipPath>
</defs>
</svg>
