<svg width="140" height="26" viewBox="0 0 140 26" fill="none" xmlns="http://www.w3.org/2000/svg">
<g id="Frame">
<path id="Vector" d="M12.9237 3.46021C12.5821 2.63892 11.4187 2.63892 11.0771 3.46021L8.66766 9.25315L2.41369 9.75453C1.52703 9.82562 1.16751 10.9321 1.84305 11.5107L6.60791 15.5923L5.15217 21.6952C4.94578 22.5604 5.88703 23.2442 6.64613 22.7806L12.0004 19.5102L17.3547 22.7806C18.1138 23.2442 19.055 22.5604 18.8486 21.6952L17.3929 15.5923L22.1578 11.5107C22.8333 10.9321 22.4738 9.82562 21.5871 9.75453L15.3331 9.25315L12.9237 3.46021Z" fill="#0355A7"/>
<path id="Vector_2" d="M41.9237 3.46021C41.5821 2.63892 40.4187 2.63892 40.0771 3.46021L37.6677 9.25315L31.4137 9.75453C30.527 9.82562 30.1675 10.9321 30.8431 11.5107L35.6079 15.5923L34.1522 21.6952C33.9458 22.5604 34.887 23.2442 35.6461 22.7806L41.0004 19.5102L46.3547 22.7806C47.1138 23.2442 48.055 22.5604 47.8486 21.6952L46.3929 15.5923L51.1578 11.5107C51.8333 10.9321 51.4738 9.82562 50.5871 9.75453L44.3331 9.25315L41.9237 3.46021Z" fill="#0355A7"/>
<path id="Vector_3" d="M70.9237 3.46021C70.5821 2.63892 69.4187 2.63892 69.0771 3.46021L66.6677 9.25315L60.4137 9.75453C59.527 9.82562 59.1675 10.9321 59.8431 11.5107L64.6079 15.5923L63.1522 21.6952C62.9458 22.5604 63.887 23.2442 64.6461 22.7806L70.0004 19.5102L75.3547 22.7806C76.1138 23.2442 77.055 22.5604 76.8486 21.6952L75.3929 15.5923L80.1578 11.5107C80.8333 10.9321 80.4738 9.82562 79.5871 9.75453L73.3331 9.25315L70.9237 3.46021Z" fill="#0355A7"/>
<path id="Vector_4" d="M99.9237 3.46021C99.5821 2.63892 98.4187 2.63892 98.0771 3.46021L95.6677 9.25315L89.4137 9.75453C88.527 9.82562 88.1675 10.9321 88.8431 11.5107L93.6079 15.5923L92.1522 21.6952C91.9458 22.5604 92.887 23.2442 93.6461 22.7806L99.0004 19.5102L104.355 22.7806C105.114 23.2442 106.055 22.5604 105.849 21.6952L104.393 15.5923L109.158 11.5107C109.833 10.9321 109.474 9.82562 108.587 9.75453L102.333 9.25315L99.9237 3.46021Z" fill="#0355A7"/>
<path id="Vector_5" d="M128.924 3.46021C128.582 2.63892 127.419 2.63892 127.077 3.46021L124.668 9.25315L118.414 9.75453C117.527 9.82562 117.168 10.9321 117.843 11.5107L122.608 15.5923L121.152 21.6952C120.946 22.5604 121.887 23.2442 122.646 22.7806L128 19.5102L133.355 22.7806C134.114 23.2442 135.055 22.5604 134.849 21.6952L133.393 15.5923L138.158 11.5107C138.833 10.9321 138.474 9.82562 137.587 9.75453L131.333 9.25315L128.924 3.46021Z" fill="#0355A7"/>
</g>
</svg>
