<svg width="20" height="20" viewBox="0 0 20 20" fill="none" xmlns="http://www.w3.org/2000/svg">
<g id="Frame">
<path id="Vector" fill-rule="evenodd" clip-rule="evenodd" d="M17.5038 17.7851C18.0273 17.337 18.33 16.6834 18.3332 15.9943V13.483C18.3332 12.7518 17.8566 12.1061 17.158 11.8905L14.2608 10.9964C13.7378 10.8351 13.1691 10.9407 12.7389 11.2789L11.5828 12.1882C10.8627 11.6838 10.1763 11.11 9.53309 10.4668C8.88992 9.82358 8.31609 9.13725 7.81166 8.41716L8.721 7.26099C9.05925 6.83086 9.16484 6.26208 9.0035 5.73919L8.10944 2.84196C7.89384 2.1433 7.24805 1.66675 6.51689 1.66675H4.00559C3.31651 1.66992 2.66288 1.97266 2.21481 2.49618C1.84448 2.92888 1.63489 3.48089 1.67039 4.04932C1.89422 7.63195 3.37477 11.1503 6.11216 13.8877C8.84959 16.6252 12.368 18.1057 15.9506 18.3295C16.519 18.365 17.071 18.1554 17.5038 17.7851ZM6.82914 7.64437C6.48842 8.07758 6.47164 8.68283 6.78784 9.13425C7.3338 9.91366 7.95439 10.6558 8.64925 11.3507C9.34409 12.0455 10.0863 12.6662 10.8657 13.2121C11.3171 13.5282 11.9223 13.5115 12.3556 13.1707L13.5117 12.2615C13.6193 12.1769 13.7614 12.1505 13.8922 12.1908L16.7893 13.0849C16.964 13.1388 17.0832 13.3002 17.0832 13.483V15.9908C17.081 16.3159 16.9379 16.624 16.6909 16.8354C16.4754 17.0199 16.2356 17.0949 16.0285 17.082C12.7382 16.8764 9.50992 15.5177 6.99604 13.0039C4.4822 10.49 3.12353 7.26177 2.91796 3.97138C2.90503 3.76433 2.98004 3.52448 3.16447 3.30898C3.37586 3.062 3.68399 2.91892 4.009 2.91675H6.51689C6.69968 2.91675 6.86113 3.03589 6.91503 3.21055L7.80909 6.10778C7.84944 6.2385 7.82304 6.3807 7.73846 6.48823L6.82914 7.64437Z" fill="#0355A7"/>
</g>
</svg>
