<svg width="20" height="20" viewBox="0 0 20 20" fill="none" xmlns="http://www.w3.org/2000/svg">
<g id="Frame">
<path id="Vector" d="M9.37651 16.8748C9.37651 17.2201 9.65634 17.4999 10.0015 17.4999C10.3467 17.4999 10.6265 17.2201 10.6265 16.8749V10.6248H16.8764C17.2216 10.6248 17.5014 10.345 17.5014 9.99981C17.5014 9.65464 17.2216 9.37481 16.8764 9.37481H10.6265V3.12488C10.6265 2.7797 10.3467 2.49988 10.0015 2.49988C9.65634 2.49988 9.37651 2.77969 9.37651 3.12488V9.37481H3.12646C2.78129 9.37481 2.50146 9.65464 2.50146 9.99981C2.50146 10.345 2.78129 10.6248 3.12646 10.6248H9.37651V16.8748Z" fill="white"/>
</g>
</svg>
