<svg width="20" height="20" viewBox="0 0 20 20" fill="none" xmlns="http://www.w3.org/2000/svg">
<g id="Frame">
<path id="Vector" d="M15.0101 4.10713C15.2542 3.86305 15.6498 3.86305 15.8939 4.10713C16.138 4.35121 16.138 4.74694 15.8939 4.99101L10.8853 9.99967L15.8939 15.0083C16.138 15.2524 16.138 15.6482 15.8939 15.8923C15.6498 16.1363 15.2542 16.1363 15.0101 15.8923L10.0013 10.8836L4.99273 15.8922C4.96222 15.9228 4.92934 15.9494 4.89468 15.9723C4.65209 16.1325 4.32241 16.1058 4.10884 15.8922C3.86476 15.6482 3.86476 15.2524 4.10884 15.0083L9.1175 9.99967L4.10884 4.99105C3.86477 4.74698 3.86477 4.35125 4.10884 4.10717C4.35292 3.8631 4.74865 3.8631 4.99273 4.10717L10.0013 9.11584L15.0101 4.10713Z" fill="#0355A7"/>
</g>
</svg>
