<svg width="20" height="20" viewBox="0 0 20 20" fill="none" xmlns="http://www.w3.org/2000/svg">
<g id="Frame">
<path id="Vector" fill-rule="evenodd" clip-rule="evenodd" d="M8.75175 1.87476C4.95475 1.87476 1.87671 4.9528 1.87671 8.74979C1.87671 12.5467 4.95475 15.6248 8.75175 15.6248C10.4249 15.6248 11.9593 15.0264 13.1511 14.033L17.4512 18.3331C17.6953 18.5772 18.091 18.5772 18.3351 18.3331C18.5791 18.089 18.5791 17.6933 18.3351 17.4492L14.035 13.1491C15.0283 11.9573 15.6268 10.423 15.6268 8.74979C15.6268 4.9528 12.5487 1.87476 8.75175 1.87476ZM3.12671 8.74979C3.12671 5.64315 5.64511 3.12476 8.75175 3.12476C11.8583 3.12476 14.3768 5.64315 14.3768 8.74979C14.3768 10.3032 13.7478 11.7086 12.7292 12.7272C11.7106 13.7459 10.3052 14.3748 8.75175 14.3748C5.64511 14.3748 3.12671 11.8564 3.12671 8.74979Z" fill="#0355A7"/>
</g>
</svg>
