<svg width="20" height="20" viewBox="0 0 20 20" fill="none" xmlns="http://www.w3.org/2000/svg">
<g id="Frame">
<path id="Vector" d="M13.2834 6.66635L10.6257 4.00858V12.708C10.6257 12.7296 10.6246 12.7509 10.6224 12.7719C10.5904 13.0871 10.3242 13.333 10.0007 13.333C9.65549 13.333 9.37566 13.0532 9.37566 12.708V4.00859L6.71782 6.6664C6.47375 6.91047 6.07802 6.91047 5.83394 6.6664C5.58986 6.42231 5.58986 6.02659 5.83394 5.78251L9.55866 2.05775C9.67591 1.94054 9.83491 1.87469 10.0007 1.87469C10.1664 1.87469 10.3253 1.94054 10.4426 2.05775L14.1672 5.78246C14.4113 6.02654 14.4113 6.42226 14.1672 6.66635C13.9232 6.91042 13.5275 6.91042 13.2834 6.66635Z" fill="#9ABBDC"/>
<path id="Vector_2" d="M3.33398 11.6666C3.67916 11.6666 3.95898 11.9464 3.95898 12.2916V15.8332C3.95898 15.9483 4.05226 16.0416 4.16732 16.0416H15.834C15.949 16.0416 16.0423 15.9483 16.0423 15.8332V12.2916C16.0423 11.9464 16.3222 11.6666 16.6673 11.6666C17.0125 11.6666 17.2923 11.9464 17.2923 12.2916V15.8332C17.2923 16.6387 16.6394 17.2916 15.834 17.2916H4.16732C3.3619 17.2916 2.70898 16.6387 2.70898 15.8332V12.2916C2.70898 11.9464 2.9888 11.6666 3.33398 11.6666Z" fill="#9ABBDC"/>
</g>
</svg>
