<svg width="170" height="52" viewBox="0 0 170 52" fill="none" xmlns="http://www.w3.org/2000/svg">
<g id="Untitled-1 1" clip-path="url(#clip0_141_216)">
<path id="Vector" d="M7.37057 45.2138H19.8401C29.1326 50.5352 39.9342 52.9973 45.8909 53.6327C47.3999 53.871 48.2737 53.871 48.2737 53.871C42.3963 52.7591 33.5009 49.8203 25.8763 45.4521C19.9194 42.0369 14.5186 37.748 11.2623 32.7443C7.76768 27.3435 5.78209 21.7839 5.38498 17.0185C4.98785 12.1737 6.17922 8.12308 8.87961 5.81979C11.7389 3.43709 15.0747 2.32516 18.6487 2.0869C13.8833 1.68977 9.11787 2.72227 5.38498 5.89922C-0.174669 10.5852 -0.254093 23.69 7.37057 34.4122C7.37057 34.4917 7.45 34.4917 7.45 34.5711V45.2138H7.37057ZM48.1942 42.5929V33.8563C47.0822 34.8888 45.2556 35.5242 43.0318 35.7624C40.093 36.0008 36.5984 35.4447 33.0243 33.9357C32.0712 33.5386 31.1182 33.062 30.2446 32.5855C26.1145 30.2823 22.6993 26.9465 20.4755 23.5313C18.2515 20.116 17.2985 16.542 18.1722 14.0004C19.0458 12.412 20.1578 11.4589 21.3491 10.9029C22.5405 10.3469 23.8907 10.1881 25.3202 10.2675C26.6704 10.3469 28.1001 10.744 29.5297 11.3C31.1182 11.9354 32.6272 12.8091 34.1363 13.7622C35.5659 14.7152 36.8367 15.9065 37.9486 17.0979C39.1399 18.4481 40.093 19.8778 40.8078 21.228C41.5227 22.6575 41.9198 24.0872 41.9198 25.2786C41.9198 26.311 41.6021 27.1847 40.8078 27.8996C40.1725 28.2967 39.2194 28.376 38.1074 28.2172C36.8367 27.9789 35.407 27.3435 33.9774 26.5494C32.5478 25.6756 31.277 24.6431 30.2446 23.4518C29.2121 22.3398 28.4972 21.1485 28.1001 20.0366C27.2265 17.0979 28.7355 16.0654 30.0062 15.7477C30.6416 15.5888 31.1976 15.5095 31.4359 15.5095H31.5153L32.8655 15.3506L31.6741 14.7947C31.5948 14.7947 30.721 14.6358 29.768 14.6358C29.0532 14.7152 28.259 14.7947 27.5442 15.1124C26.7499 15.4301 26.1145 15.986 25.6379 16.8597C25.3202 17.4951 25.1615 18.2892 25.2408 19.2423C25.3997 20.9102 26.2733 22.737 27.6235 24.4049C29.0532 26.1522 30.8799 27.7407 33.0243 28.9321C35.0893 30.1234 37.3132 30.6793 39.2988 30.8382C41.3638 30.9176 43.1111 30.4411 44.1436 29.4085C44.3025 29.2498 44.4613 29.0114 44.6202 28.8526C45.8909 27.0258 45.732 24.6431 44.6202 22.1811C43.5082 19.7983 41.6021 17.2567 39.2194 15.0329C37.9486 13.8416 36.6778 12.7297 35.2482 11.7766C34.0568 10.9029 32.7861 10.1881 31.5153 9.47327C28.656 7.96422 25.6379 7.01115 22.8582 7.09056C20.0783 7.09056 17.5367 8.12308 15.71 10.6646C15.4718 11.0617 15.154 11.4589 14.9158 11.9354C13.2479 15.1918 13.8833 19.3218 16.1072 23.4518C18.4899 27.8201 22.6198 32.1884 27.5442 35.4447C33.342 39.2571 39.8548 41.1632 43.9848 41.9575C44.8584 42.1957 47.1617 42.5929 48.1942 42.5929ZM48.1942 21.1485V2.8017H25.8763C29.768 3.75477 33.5009 5.58152 36.7572 7.96422C41.2844 11.3 45.5733 15.986 48.0354 20.7514C48.1148 20.8309 48.1148 20.9896 48.1942 21.1485Z" fill="#00BE6E"/>
<path id="Vector_2" fill-rule="evenodd" clip-rule="evenodd" d="M80.9959 2.87756V49.3403H76.3894V26.0692H67.0968V49.3403H62.4902V2.87756H67.0968V21.4627H76.3894V2.87756H80.9959ZM92.3534 7.48413V21.3832H102.043V25.9898H92.3534V44.6544H104.426V49.3403H87.6675V2.87756H104.426V7.48413H92.3534ZM125.95 44.6544V49.3403H109.271V2.87756H113.877V44.6544H125.95ZM133.812 49.4197H129.206V2.95699H133.812V49.4197ZM152.477 23.9247L159.307 49.3403H154.542L148.903 27.2605L143.343 49.3403H138.499L145.329 23.9247L138.419 2.87756H143.423L148.903 20.7479L154.383 2.87756H159.307L152.477 23.9247Z" fill="black"/>
</g>
<defs>
<clipPath id="clip0_141_216">
<rect width="170" height="51.9444" fill="white"/>
</clipPath>
</defs>
</svg>
