<svg width="170" height="31" viewBox="0 0 170 31" fill="none" xmlns="http://www.w3.org/2000/svg">
<g id="main-logo 1" clip-path="url(#clip0_116_76)">
<g id="component/header/middle-block-client">
<g id="logo">
<path id="Shape" fill-rule="evenodd" clip-rule="evenodd" d="M79.5469 0.428101L73.5923 30.2756H80.3551L86.3098 0.428101H79.5469Z" fill="#0097B3"/>
<path id="Shape_2" fill-rule="evenodd" clip-rule="evenodd" d="M12.7175 0.428101H5.95464L0 30.2756H6.76284L12.7175 0.428101Z" fill="#0097B3"/>
<path id="Shape_3" fill-rule="evenodd" clip-rule="evenodd" d="M77.3547 0.428101H70.5919L58.0044 21.1439L54.0285 0.428101H47.2656L52.988 30.2756H59.2121L77.3547 0.428101Z" fill="#0097B3"/>
<path id="Shape_4" fill-rule="evenodd" clip-rule="evenodd" d="M111.596 0.428101H89.524L88.3535 6.69859H96.036L91.3262 30.2756H98.089L102.79 6.69859H110.435L111.596 0.428101Z" fill="#0097B3"/>
<path id="Shape_5" fill-rule="evenodd" clip-rule="evenodd" d="M38.8587 0.428101L34.9199 20.1778L24.5712 0.428101H18.7281L12.7827 30.2756H19.2947L23.2428 10.4795L33.5636 30.2756H39.4253L45.3707 0.428101H38.8587Z" fill="#0097B3"/>
<path id="Shape_6" fill-rule="evenodd" clip-rule="evenodd" d="M127.677 0.428101H115.275L109.32 30.2756H116.12L120.765 6.69859H126.608C127.784 6.64375 128.931 7.06969 129.785 7.87837C130.44 8.58505 130.758 9.53981 130.659 10.498C130.371 13.4986 128.011 14.8827 124.955 14.8827H120.022L126.376 30.2756H133.139L128.912 20.0571C133.8 19.4283 137.466 15.2773 137.486 10.3494C137.765 4.56198 133.51 0.428101 127.649 0.428101" fill="#0097B3"/>
<path id="Shape_7" d="M138.768 15.3565C139.283 6.67111 146.52 -0.0837737 155.22 0.000785241C164.222 0.000785241 170.297 6.82865 169.805 15.3472C169.29 24.0326 162.053 30.7875 153.353 30.703C144.351 30.703 138.276 23.8751 138.777 15.3565M163.516 15.3565C163.737 12.9342 162.912 10.533 161.248 8.75806C159.585 6.98313 157.243 6.0038 154.811 6.06691C149.597 6.04691 145.296 10.1468 145.067 15.3565C144.846 17.7788 145.671 20.18 147.334 21.955C148.997 23.7299 151.339 24.7092 153.771 24.6461C158.989 24.6711 163.296 20.5699 163.525 15.3565" fill="#0097B3"/>
</g>
</g>
</g>
<defs>
<clipPath id="clip0_116_76">
<rect width="170" height="30.9091" fill="white"/>
</clipPath>
</defs>
</svg>
